# xmcd
#
# Track frame offsets:
#	150
#	16415
#	30357
#	46765
#	67267
#	89146
#	102023
#	116445
#	128634
#	140555
#	151269
#	166543
#	183234
#	196352
#	218227
#	231400
#	246460
#	264766
#
# Disc length: 3744
#
# Revision: 3
# Processed by: cddbd v1.5.1PL0 Copyright (c) Steve Scherf et al.
# Submitted via: OrangeCD 5.2
# Normalized: r2:DSETVAR1
#
DISCID=f10e9e12
DTITLE=Various Artist - The Best Line Dancing Album In The World Ever! [CD1]
DYEAR=2004
DGENRE=Country
TTITLE0=Lacy J Dalton - Black Coffee
TTITLE1=Larry Gatlin - Boogie and Beethoven
TTITLE2=Suzy Bogguss - Eat At Joes
TTITLE3=Asleep At The Wheel - Lay Down Sally
TTITLE4=Charlie Daniels - Tennesse Two Step
TTITLE5=Chris Ledoux - Cowboy Like A Little Rock n Roll
TTITLE6=Gina Jefferys - Girls Night Out
TTITLE7=Pirates Of The Mississippi - Wild Side Of Life
TTITLE8=Tanya Tucker - Walkin' Shoes
TTITLE9=Eddie Rabbitt - Two Dollars In The Jukebox
TTITLE10=Eddy Raven - In A Letter To You
TTITLE11=Billy Dean - That Girls Been Spying On Me
TTITLE12=Tanya Tucker - San Antonio Stroll
TTITLE13=Deana Carter - Strawberry Wine
TTITLE14=The Ranch - Walking The Country
TTITLE15=Suzy Bogguss - No Way Out
TTITLE16=Chris Ledoux - Honky Tonk World
TTITLE17=Wild Rose - Hillbilly Twist
EXTD=
EXTT0=
EXTT1=
EXTT2=
EXTT3=
EXTT4=
EXTT5=
EXTT6=
EXTT7=
EXTT8=
EXTT9=
EXTT10=
EXTT11=
EXTT12=
EXTT13=
EXTT14=
EXTT15=
EXTT16=
EXTT17=
PLAYORDER=
